<svg xmlns="http://www.w3.org/2000/svg" viewBox="0 0 762 59.44"><defs><style>.cls-1{fill:#313131;}</style></defs><g id="Layer_2" data-name="Layer 2"><g id="Layer_1-2" data-name="Layer 1"><path class="cls-1" d="M12.72,58.66H0V.78H22.69A26.37,26.37,0,0,1,34.17,3.17,17.87,17.87,0,0,1,41.87,10a19.16,19.16,0,0,1,2.68,10.08c0,5.7-2,10.26-5.9,13.57s-9.32,4.94-16.16,4.94H12.72ZM1,57.66H11.72v-20H22.49c6.59,0,11.82-1.59,15.52-4.71s5.54-7.41,5.54-12.8A18.18,18.18,0,0,0,41,10.54a16.84,16.84,0,0,0-7.27-6.46,25.19,25.19,0,0,0-11-2.3H1ZM22.69,29.12h-11V10.27H23a9.74,9.74,0,0,1,7.16,2.81,9.94,9.94,0,0,1,2.6,7.11,8.47,8.47,0,0,1-2.61,6.62C28.4,28.35,25.9,29.12,22.69,29.12Zm-10-1h10c3,0,5.23-.69,6.75-2.06a7.51,7.51,0,0,0,2.28-5.87,9,9,0,0,0-2.32-6.42A8.81,8.81,0,0,0,23,11.27H12.72Z"/><path class="cls-1" d="M89.2,58.66H51.6V.78H64.32V48.24H89.2Zm-36.6-1H88.2V49.24H63.32V1.78H52.6Z"/><path class="cls-1" d="M145.4,58.66H131.86l-4-11.72H108.09l-3.91,11.72H90.64L112.18.78h11.56Zm-12.82-1H144L123,1.78H112.88L92.08,57.66h11.38l3.91-11.72h21.26ZM125.8,37.45H110.2L118,14.08Zm-14.22-1h12.83L118,17.23Z"/><path class="cls-1" d="M170.62,59.44A29.71,29.71,0,0,1,158.46,57,19.49,19.49,0,0,1,150,50.23a17.37,17.37,0,0,1-2.92-10v-.5h12.76v.5c0,6,3.51,8.91,10.75,8.91a10.57,10.57,0,0,0,6.23-1.6A5,5,0,0,0,179,43.23a5.49,5.49,0,0,0-2.14-4.69c-1.51-1.15-4.3-2.39-8.29-3.68a60.1,60.1,0,0,1-9.73-3.92c-6.61-3.57-9.95-8.46-9.95-14.54a14.28,14.28,0,0,1,2.69-8.52,17.52,17.52,0,0,1,7.67-5.81A28.79,28.79,0,0,1,170.34,0a26.25,26.25,0,0,1,11.07,2.25A17.87,17.87,0,0,1,189,8.66a16.84,16.84,0,0,1,2.72,9.42v.5H179v-.5a7.14,7.14,0,0,0-2.29-5.7,9.65,9.65,0,0,0-6.58-2,10.37,10.37,0,0,0-6.38,1.71,5.21,5.21,0,0,0-2.18,4.39,5,5,0,0,0,2.57,4.23,30.89,30.89,0,0,0,8.09,3.45c6.71,2,11.68,4.57,14.77,7.58a15.44,15.44,0,0,1,4.72,11.46,14.22,14.22,0,0,1-5.78,12C182.16,58,177,59.44,170.62,59.44Zm-22.5-18.67a16.23,16.23,0,0,0,2.74,8.9,18.47,18.47,0,0,0,8,6.41,28.74,28.74,0,0,0,11.75,2.36c6.16,0,11.12-1.38,14.74-4.1a13.28,13.28,0,0,0,5.38-11.18,14.42,14.42,0,0,0-4.42-10.74c-3-2.9-7.8-5.37-14.36-7.34a32.1,32.1,0,0,1-8.36-3.58,6,6,0,0,1-3-5.06,6.22,6.22,0,0,1,2.58-5.19,11.31,11.31,0,0,1,7-1.91,10.62,10.62,0,0,1,7.24,2.29A8,8,0,0,1,180,17.58h10.73a15.86,15.86,0,0,0-2.55-8.37A16.92,16.92,0,0,0,181,3.16,25.23,25.23,0,0,0,170.34,1a27.75,27.75,0,0,0-10.72,2,16.55,16.55,0,0,0-7.25,5.48,13.31,13.31,0,0,0-2.5,7.93c0,5.68,3.17,10.28,9.42,13.66a59.07,59.07,0,0,0,9.57,3.85c4.15,1.35,7,2.6,8.58,3.83A6.5,6.5,0,0,1,180,43.23a6,6,0,0,1-2.55,5.16,11.45,11.45,0,0,1-6.81,1.79c-7.6,0-11.55-3.17-11.74-9.41Z"/><path class="cls-1" d="M225.06,58.66H212.34V11.27H195.16V.78h47.32V11.27H225.06Zm-11.72-1h10.72V10.27h17.42V1.78H196.16v8.49h17.18Z"/><path class="cls-1" d="M261.62,58.66H248.91V.78h12.71Zm-11.71-1h10.71V1.78H249.91Z"/><path class="cls-1" d="M293.74,59.44c-7.41,0-13.33-2.54-17.59-7.54S269.77,40,269.77,31.36V27.88a34.72,34.72,0,0,1,2.93-14.66,22.23,22.23,0,0,1,8.45-9.8A23.75,23.75,0,0,1,293.9,0c6.65,0,12.1,1.82,16.19,5.4s6.48,8.67,7.12,15.13l.05.55H304.53l0-.46c-.27-3.53-1.25-6.11-2.91-7.67s-4.24-2.34-7.68-2.34c-3.77,0-6.5,1.3-8.36,4s-2.85,7-2.9,12.75v4.29c0,6,.91,10.46,2.71,13.2s4.53,4,8.39,4c3.48,0,6.09-.79,7.77-2.35s2.66-4,2.91-7.35l0-.46h12.72l0,.54c-.45,6.23-2.79,11.2-6.95,14.79S300.5,59.44,293.74,59.44ZM293.9,1a22.82,22.82,0,0,0-12.22,3.26,21.32,21.32,0,0,0-8.07,9.38,33.7,33.7,0,0,0-2.84,14.24v3.48c0,8.41,2.06,15.1,6.15,19.89s9.72,7.19,16.82,7.19c6.51,0,11.82-1.74,15.79-5.15s6-7.88,6.56-13.58H305.37c-.32,3.35-1.39,5.88-3.18,7.54s-4.71,2.62-8.45,2.62c-4.17,0-7.27-1.51-9.22-4.49s-2.88-7.53-2.88-13.75V27.34c.05-6,1.09-10.45,3.08-13.32s5.12-4.41,9.18-4.41c3.71,0,6.52.88,8.37,2.62s2.83,4.3,3.18,7.85h10.7c-.68-5.93-2.94-10.62-6.72-13.93S300.31,1,293.9,1Z"/><path class="cls-1" d="M389.05,58.66H375.66L365,37.84h-8.53V58.66H343.75V.78h21.63c6.81,0,12.15,1.55,15.87,4.61s5.65,7.48,5.65,13.08a18.11,18.11,0,0,1-2.6,10,17.58,17.58,0,0,1-7.37,6.15l12.12,22.89Zm-12.78-1H388L375.55,34.13l.49-.22a16.8,16.8,0,0,0,7.42-6,17.05,17.05,0,0,0,2.44-9.43c0-5.29-1.78-9.43-5.29-12.31S372,1.78,365.38,1.78H344.75V57.66h10.72V36.84h10.14ZM365.42,28.34h-9.95V10.27h9.91c3.28,0,5.76.83,7.37,2.46a9.1,9.1,0,0,1,2.43,6.68A8.52,8.52,0,0,1,372.6,26,10.2,10.2,0,0,1,365.42,28.34Zm-8.95-1h8.95a9.26,9.26,0,0,0,6.5-2.11,7.58,7.58,0,0,0,2.26-5.82,8.15,8.15,0,0,0-2.14-6c-1.42-1.43-3.66-2.16-6.66-2.16h-8.91Z"/><path class="cls-1" d="M433.93,58.66H394.8V.78h39.05V11.27H407.52V23.83H430V34h-22.5V48.24h26.41Zm-38.13-1h37.13V49.24H406.52V33H429V24.83h-22.5V10.27h26.33V1.78H395.8Z"/><path class="cls-1" d="M462.06,59.44c-7.41,0-13.33-2.54-17.59-7.54S438.09,40,438.09,31.36V27.88A34.72,34.72,0,0,1,441,13.22a22.23,22.23,0,0,1,8.45-9.8A23.75,23.75,0,0,1,462.22,0c6.66,0,12.1,1.82,16.19,5.4s6.48,8.67,7.12,15.13l.05.55H472.85l0-.46c-.27-3.53-1.25-6.11-2.91-7.67s-4.24-2.34-7.68-2.34c-3.77,0-6.5,1.3-8.36,4s-2.85,7-2.9,12.75v4.29c0,6,.91,10.46,2.71,13.2s4.53,4,8.39,4c3.48,0,6.09-.79,7.77-2.35s2.66-4,2.91-7.35l0-.46h12.72l0,.54c-.45,6.23-2.79,11.2-6.95,14.79S468.82,59.44,462.06,59.44ZM462.22,1A22.84,22.84,0,0,0,450,4.26a21.32,21.32,0,0,0-8.07,9.38,33.7,33.7,0,0,0-2.84,14.24v3.48c0,8.41,2.07,15.1,6.15,19.89s9.72,7.19,16.82,7.19c6.51,0,11.83-1.74,15.79-5.15s6-7.88,6.56-13.58H473.69c-.32,3.35-1.39,5.88-3.18,7.54s-4.71,2.62-8.45,2.62c-4.17,0-7.27-1.51-9.22-4.49S450,37.85,450,31.63V27.34c.05-6,1.09-10.45,3.08-13.32s5.12-4.41,9.18-4.41c3.71,0,6.52.88,8.37,2.62s2.83,4.3,3.18,7.85h10.7c-.68-5.93-2.94-10.62-6.72-13.93S468.62,1,462.22,1Z"/><path class="cls-1" d="M518.73,58.66H505.82v-21L486.83.78h14l11.44,24.93L523.77.78h14l-19,36.87Zm-11.91-1h10.91V37.41L536.09,1.78H524.41L512.26,28.1,500.18,1.78H488.47l18.35,35.63Z"/><path class="cls-1" d="M562.73,59.44c-7.41,0-13.33-2.54-17.59-7.54S538.75,40,538.75,31.36V27.88a34.72,34.72,0,0,1,2.94-14.66,22.16,22.16,0,0,1,8.45-9.8A23.69,23.69,0,0,1,562.88,0c6.66,0,12.11,1.82,16.19,5.4s6.49,8.67,7.12,15.13l.06.55H573.51l0-.46c-.28-3.53-1.26-6.11-2.91-7.67s-4.24-2.34-7.69-2.34c-3.76,0-6.5,1.3-8.36,4s-2.84,7-2.9,12.75v4.29c0,6,.92,10.46,2.72,13.2s4.52,4,8.39,4c3.47,0,6.08-.79,7.76-2.35s2.66-4,2.91-7.35l0-.46h12.72l0,.54c-.45,6.23-2.79,11.2-7,14.79S569.48,59.44,562.73,59.44ZM562.88,1a22.78,22.78,0,0,0-12.21,3.26,21.34,21.34,0,0,0-8.08,9.38,33.85,33.85,0,0,0-2.84,14.24v3.48c0,8.41,2.07,15.1,6.15,19.89s9.72,7.19,16.83,7.19c6.51,0,11.82-1.74,15.78-5.15s6-7.88,6.56-13.58H574.36c-.33,3.35-1.4,5.88-3.19,7.54s-4.71,2.62-8.44,2.62c-4.18,0-7.28-1.51-9.23-4.49s-2.88-7.53-2.88-13.75V27.34c.06-6,1.09-10.45,3.08-13.32s5.12-4.41,9.18-4.41c3.71,0,6.53.88,8.37,2.62s2.84,4.3,3.18,7.85h10.71c-.69-5.93-2.95-10.62-6.73-13.93S569.29,1,562.88,1Z"/><path class="cls-1" d="M630.41,58.66h-37.6V.78h12.72V48.24h24.88Zm-36.6-1h35.6V49.24H604.53V1.78H593.81Z"/><path class="cls-1" d="M649.59,58.66H636.88V.78h12.71Zm-11.71-1h10.71V1.78H637.88Z"/><path class="cls-1" d="M706.7,58.66H694.2l-.14-.24-21.89-35.9V58.66H659.45V.78H672l.15.24L694,37V.78H706.7Zm-11.93-1H705.7V1.78H695V40.56L671.39,1.78H660.45V57.66h10.72V19Z"/><path class="cls-1" d="M739.68,59.44a26,26,0,0,1-13.2-3.29,22.07,22.07,0,0,1-8.79-9.57A33.58,33.58,0,0,1,714.53,32V28.08a35.58,35.58,0,0,1,2.92-15,21.94,21.94,0,0,1,8.47-9.75A24.56,24.56,0,0,1,738.86,0c6.83,0,12.26,1.66,16.14,4.94s6.22,8.12,6.93,14.37l.07.56H749.61l-.07-.42c-.5-3.12-1.61-5.43-3.29-6.85a10.63,10.63,0,0,0-7-2.15,9.84,9.84,0,0,0-8.69,4.28c-2,2.9-3,7.3-3.07,13.08v3.63c0,5.82,1.11,10.27,3.3,13.21S736.12,49,740.3,49s7.13-.85,8.92-2.52V37.41H738.55V27.77h23.39V51.15l-.12.14a21,21,0,0,1-9.16,6A38.29,38.29,0,0,1,739.68,59.44ZM738.86,1a23.5,23.5,0,0,0-12.42,3.23,20.85,20.85,0,0,0-8.08,9.31,34.57,34.57,0,0,0-2.83,14.54V32a32.64,32.64,0,0,0,3.05,14.19,21.12,21.12,0,0,0,8.4,9.14,25,25,0,0,0,12.7,3.16,37.28,37.28,0,0,0,12.64-2.06,20.11,20.11,0,0,0,8.62-5.59v-22H739.55v7.64h10.67V46.92l-.15.14c-2,2-5.25,3-9.77,3s-8-1.6-10.36-4.77-3.49-7.77-3.49-13.81V27.8c0-6,1.12-10.57,3.25-13.64a10.91,10.91,0,0,1,9.51-4.71,11.6,11.6,0,0,1,7.69,2.39c1.79,1.51,3,3.88,3.55,7h10.42c-.75-5.72-2.94-10.14-6.51-13.16S745.45,1,738.86,1Z"/></g></g></svg>