<svg xmlns="http://www.w3.org/2000/svg" width="164.889" height="32.745" viewBox="0 0 164.889 32.745"><defs><style>.a{fill:#6b0dee;}</style></defs><g transform="translate(-31.001 -28.387)"><path class="a" d="M44.874,52.9a7.976,7.976,0,0,0,3.641-6.7V37.226a8.153,8.153,0,0,0-2.338-5.643,7.954,7.954,0,0,0-5.641-2.336H39.009a7.961,7.961,0,0,0-4.7,1.442A8.534,8.534,0,0,0,31.156,35.8a46.961,46.961,0,0,0-.127,5.386c-.063,3.869,0,3.853,0,5.01a8.154,8.154,0,0,0,2.336,5.644,7.956,7.956,0,0,0,5.644,2.337h1.526a8.082,8.082,0,0,0,1.426-.126l5.36,3.791L48.84,55.7Zm-4.48-1.047H39.148A6.406,6.406,0,0,1,35.4,50.3c-1.789-1.659-1.8-4.111-1.749-8.947.047-4.434.1-6.683,1.749-8.226a6.331,6.331,0,0,1,3.746-1.552h1.246a6.4,6.4,0,0,1,3.747,1.553c1.76,1.633,1.791,3.971,1.782,8.586-.009,4.644-.05,7-1.838,8.628a6.35,6.35,0,0,1-3.691,1.508" transform="translate(0 0.144)"/><path class="a" d="M63.4,35.416V46.688a6.726,6.726,0,0,1-13.452,0V35.416h2.626V47.131a3.918,3.918,0,0,0,3.92,3.92h.361a3.92,3.92,0,0,0,3.921-3.92V35.416Z" transform="translate(3.162 1.173)"/><path class="a" d="M93.574,41.444V53.176H90.95V41.411a3.871,3.871,0,0,0-3.873-3.871h-.524a3.872,3.872,0,0,0-3.873,3.871V53.176H80.058V35.234H82.68v3.323a4.271,4.271,0,0,1,1.183-2.231c1.838-1.777,4.75-.985,5.293-.823a6.2,6.2,0,0,1,4.418,5.941" transform="translate(8.188 1.135)"/><path class="a" d="M104.926,53.057a5.632,5.632,0,0,1-1.622.746,5.151,5.151,0,0,1-3.659-.233,4.692,4.692,0,0,1-2.424-2.678,4.3,4.3,0,0,1-.2-1.3V38.138H94V35.512H97.02v-3.9h2.624v3.9h4.234v2.626H99.644V49.472a2.214,2.214,0,0,0,2.216,2.214h.261a2.7,2.7,0,0,0,.639-.119,2.864,2.864,0,0,0,1.2-.749q.483,1.118.966,2.239" transform="translate(10.515 0.538)"/><path class="a" d="M166.2,35.392l-1.831,5.368L160,53.575l-.759,2.218-.622,1.823-.8,2.346h-2.771l2.059-6.037.118-.344-6.288-18.189h2.8l4.933,14.7,4.521-14.7Z" transform="translate(20.018 1.169)"/><path class="a" d="M77.4,38.557a6.69,6.69,0,0,0-1.619-2.106c-2.46-2.07-6.105-1.344-7.446-1.082A12.589,12.589,0,0,0,65.3,36.378q.261.6.523,1.188l.455,1.033c2.851-1.142,5.344-1.363,6.64-.865a4.3,4.3,0,0,1,1.57,1.028,3.521,3.521,0,0,1,.864,2.117h.006v1.51H70.715a6.276,6.276,0,0,0-4.346,1.719,5.736,5.736,0,0,0-1.8,4.154,5.342,5.342,0,0,0,5.455,5.216h1.6a4.077,4.077,0,0,0,3.734-2.347V53.2h2.624q.014-6.128.032-12.261a6.406,6.406,0,0,0-.611-2.384m-2.209,8.67a3.886,3.886,0,0,1-3.887,3.887h-1.1a3.049,3.049,0,0,1-3.051-3.049,3.6,3.6,0,0,1,3.608-3.609h4.43Z" transform="translate(5.603 1.109)"/><path class="a" d="M150.021,38.557a6.682,6.682,0,0,0-1.62-2.106c-2.46-2.07-6.1-1.344-7.446-1.082a12.5,12.5,0,0,0-3.036,1.009c.174.4.348.793.525,1.188L138.9,38.6c2.853-1.142,5.346-1.363,6.64-.865a4.3,4.3,0,0,1,1.572,1.028,3.512,3.512,0,0,1,.861,2.117h.008v1.51h-4.644a6.284,6.284,0,0,0-4.348,1.719,5.738,5.738,0,0,0-1.8,4.154,5.341,5.341,0,0,0,5.454,5.216h1.6a4.08,4.08,0,0,0,3.735-2.347V53.2H150.6q.016-6.128.03-12.261a6.463,6.463,0,0,0-.609-2.384m-2.21,8.67a3.885,3.885,0,0,1-3.886,3.887h-1.1a3.048,3.048,0,0,1-3.05-3.049,3.606,3.606,0,0,1,3.608-3.609h4.428Z" transform="translate(17.724 1.109)"/><path class="a" d="M113.119,35.066H112.2a6.84,6.84,0,0,0-6.842,6.84V46.63a6.99,6.99,0,0,0,2,4.837,6.819,6.819,0,0,0,4.837,2h.917a6.841,6.841,0,0,0,6.84-6.842V41.906a6.841,6.841,0,0,0-6.84-6.84m4.119,11.647a4.4,4.4,0,0,1-4.4,4.395h-.361a4.4,4.4,0,0,1-4.4-4.395V41.822a4.49,4.49,0,0,1,1.288-3.106,4.38,4.38,0,0,1,3.107-1.287h.361a4.4,4.4,0,0,1,4.4,4.393v4.891Z" transform="translate(12.411 1.115)"/><path class="a" d="M129.724,29.163h-7.5c-.1,0-.189,0-.281.008V54.325h2.627v-9.07h5.151a7.415,7.415,0,0,0,7.413-7.415V36.575a7.413,7.413,0,0,0-7.413-7.412m4.461,8.808a5,5,0,0,1-5,5h-4.608V31.917h4.608a5,5,0,0,1,5,5Z" transform="translate(15.18 0.13)"/><path class="a" d="M169.975,34.915a3.264,3.264,0,1,1,3.264-3.264,3.267,3.267,0,0,1-3.264,3.264m0-6.025a2.761,2.761,0,1,0,2.761,2.761,2.764,2.764,0,0,0-2.761-2.761" transform="translate(22.652 0)"/><path class="a" d="M169.831,31.67h-.813v1.4h-.459V29.606h1.148a1.36,1.36,0,0,1,.9.266.962.962,0,0,1,.316.776.931.931,0,0,1-.175.565,1.038,1.038,0,0,1-.488.361l.815,1.473v.028h-.491Zm-.813-.373h.7a.794.794,0,0,0,.541-.176.6.6,0,0,0,.2-.473.632.632,0,0,0-.19-.495.812.812,0,0,0-.553-.174h-.7Z" transform="translate(22.96 0.203)"/></g></svg>