<svg xmlns="http://www.w3.org/2000/svg" width="35" height="35" viewBox="0 0 35 35">
  <g id="shuttle_1_" data-name="shuttle (1)" transform="translate(0 0)" opacity="0.75">
    <path id="Path_3268" data-name="Path 3268" d="M34.959,2.613A2.721,2.721,0,0,0,32.387.041,27.017,27.017,0,0,0,18.843,2.752,26.59,26.59,0,0,0,11.078,9.19l-.083.1-5.126.4A2.706,2.706,0,0,0,3.808,10.9l-3.5,5.289a1.874,1.874,0,0,0,1.277,2.886l4.318.669c-.015.084-.031.168-.045.252a2.719,2.719,0,0,0,.762,2.365l6.015,6.015a2.726,2.726,0,0,0,1.924.8A2.68,2.68,0,0,0,15,29.138l.252-.045.669,4.318a1.873,1.873,0,0,0,2.886,1.277l5.289-3.5a2.705,2.705,0,0,0,1.213-2.062l.4-5.125.1-.083a26.587,26.587,0,0,0,6.438-7.765A27.019,27.019,0,0,0,34.959,2.613ZM22.969,29.481l-5.059,3.345-.652-4.209a22.971,22.971,0,0,0,6.269-2.985l-.258,3.339a.668.668,0,0,1-.3.509Zm-8.88-2.555L8.074,20.91a.665.665,0,0,1-.19-.577,17.64,17.64,0,0,1,.8-3.046l9.025,9.025a17.714,17.714,0,0,1-3.044.8.665.665,0,0,1-.577-.19ZM6.028,11.731l3.339-.258a22.969,22.969,0,0,0-2.985,6.269L2.174,17.09l3.345-5.059A.668.668,0,0,1,6.028,11.731ZM24.5,22.347a23.51,23.51,0,0,1-4.747,3.1l-10.2-10.2a23.916,23.916,0,0,1,3.1-4.746,24.471,24.471,0,0,1,7.132-5.931,24.942,24.942,0,0,1,12.49-2.485.673.673,0,0,1,.636.636,24.94,24.94,0,0,1-2.485,12.49,24.471,24.471,0,0,1-5.93,7.132Z" transform="translate(0)" fill="#fff"/>
    <path id="Path_3269" data-name="Path 3269" d="M280.85,96.567a5.123,5.123,0,1,0-3.625-1.5A5.112,5.112,0,0,0,280.85,96.567Zm-2.175-7.3a3.076,3.076,0,1,1-.9,2.175A3.066,3.066,0,0,1,278.675,89.268Z" transform="translate(-256.875 -80.418)" fill="#fff"/>
    <path id="Path_3270" data-name="Path 3270" d="M1.327,348.363a1.022,1.022,0,0,0,.725-.3L5.4,344.715a1.025,1.025,0,0,0-1.45-1.45L.6,346.613a1.025,1.025,0,0,0,.725,1.75Z" transform="translate(-0.281 -319.52)" fill="#fff"/>
    <path id="Path_3271" data-name="Path 3271" d="M8.187,388.146a1.025,1.025,0,0,0-1.45,0L.3,394.582a1.025,1.025,0,0,0,1.45,1.45L8.187,389.6A1.025,1.025,0,0,0,8.187,388.146Z" transform="translate(-0.001 -361.333)" fill="#fff"/>
    <path id="Path_3272" data-name="Path 3272" d="M93.711,433.027l-3.348,3.348a1.025,1.025,0,0,0,1.45,1.45l3.348-3.348a1.025,1.025,0,0,0-1.45-1.45Z" transform="translate(-83.906 -403.145)" fill="#fff"/>
  </g>
</svg>
