<svg xmlns="http://www.w3.org/2000/svg" xmlns:xlink="http://www.w3.org/1999/xlink" viewBox="0 0 126.35 17.28"><defs><style>.cls-1{fill:#2b1e33;}.cls-2{fill:url(#linear-gradient);}</style><linearGradient id="linear-gradient" x1="-1305.33" y1="-1034.68" x2="-1302.37" y2="-1039.82" gradientTransform="translate(-1254.93 -1029.24) rotate(180)" gradientUnits="userSpaceOnUse"><stop offset="0" stop-color="#4437f2"/><stop offset="1" stop-color="#8543ff"/></linearGradient></defs><g id="Layer_2" data-name="Layer 2"><g id="Layer_1-2" data-name="Layer 1"><path class="cls-1" d="M6.76,17.23a1.68,1.68,0,0,1-1.67-1.29L.11,1.86A1.34,1.34,0,0,1,.22.57,1.41,1.41,0,0,1,1.47.05a1.51,1.51,0,0,1,1,.3A1.94,1.94,0,0,1,3,1.29L6.85,12.63l4-11.32A1.59,1.59,0,0,1,12.38.05a1.29,1.29,0,0,1,.91.31,2.43,2.43,0,0,1,.57,1L17.79,12.8,21.72,1.29A2.1,2.1,0,0,1,22.3.36a1.4,1.4,0,0,1,1-.31,1.26,1.26,0,0,1,1.12.52,1.4,1.4,0,0,1,.1,1.29L19.46,16a2.21,2.21,0,0,1-.62,1,1.85,1.85,0,0,1-2.05,0,2.21,2.21,0,0,1-.62-1l-3.88-11L8.38,16a2.2,2.2,0,0,1-.61,1A1.51,1.51,0,0,1,6.76,17.23Z"/><path class="cls-1" d="M29.59,17A1.43,1.43,0,0,1,28,15.42V1.86A1.43,1.43,0,0,1,29.59.24h8.5c.83,0,1.24.4,1.24,1.19a1.09,1.09,0,0,1-1.24,1.24H30.9V7.29h6.67a1.09,1.09,0,0,1,1.24,1.22,1.08,1.08,0,0,1-1.24,1.21H30.9v4.89h7.19a1.08,1.08,0,0,1,1.24,1.21A1.09,1.09,0,0,1,38.09,17Z"/><path class="cls-1" d="M64.83,17.28a9,9,0,0,1-4.49-1.06,7.07,7.07,0,0,1-2.87-3,9.82,9.82,0,0,1-1-4.58,9.79,9.79,0,0,1,1-4.58,7.13,7.13,0,0,1,2.87-3A8.93,8.93,0,0,1,64.83,0,10.12,10.12,0,0,1,67.4.33a7.76,7.76,0,0,1,2.22,1,1.57,1.57,0,0,1,.74,1,1.45,1.45,0,0,1-.14,1,1.33,1.33,0,0,1-.79.62,1.39,1.39,0,0,1-1.17-.28,5.12,5.12,0,0,0-1.59-.69,7.39,7.39,0,0,0-1.74-.21A4.89,4.89,0,0,0,61,4.25a6.5,6.5,0,0,0-1.33,4.38A6.5,6.5,0,0,0,61,13a4.87,4.87,0,0,0,3.89,1.55,6.69,6.69,0,0,0,1.78-.23,6,6,0,0,0,1.67-.7,1.41,1.41,0,0,1,1.15-.26,1.22,1.22,0,0,1,.75.58,1.47,1.47,0,0,1,.15,1,1.5,1.5,0,0,1-.64.93,7.27,7.27,0,0,1-2.28,1.06A10.13,10.13,0,0,1,64.83,17.28Z"/><path class="cls-1" d="M73.63,17.23a1.31,1.31,0,0,1-1.2-.57,1.39,1.39,0,0,1,0-1.38L78.75,1.34a2.29,2.29,0,0,1,.75-1,1.74,1.74,0,0,1,1-.3,1.7,1.7,0,0,1,1,.3,2.15,2.15,0,0,1,.75,1l6.32,13.94a1.43,1.43,0,0,1,0,1.39,1.22,1.22,0,0,1-1.14.56,1.58,1.58,0,0,1-1-.32,2.88,2.88,0,0,1-.65-1l-1.19-2.76h-8.2l-1.17,2.76a3.25,3.25,0,0,1-.64,1A1.33,1.33,0,0,1,73.63,17.23ZM80.46,3.55l-3,7.17h6.1l-3-7.17Z"/><path class="cls-1" d="M93.31,17.23a1.37,1.37,0,0,1-1.53-1.57V1.79A1.37,1.37,0,0,1,93.33.24h5.75a6.24,6.24,0,0,1,4.26,1.32,4.69,4.69,0,0,1,1.5,3.71,4.86,4.86,0,0,1-1,3.11A4.85,4.85,0,0,1,101.05,10a3.54,3.54,0,0,1,2,1.84l1.79,3.31a1.68,1.68,0,0,1,.16,1.41c-.17.43-.58.64-1.23.64a1.86,1.86,0,0,1-1-.27,2.35,2.35,0,0,1-.71-.85L99.6,11.68a2.4,2.4,0,0,0-1-1.09,3.58,3.58,0,0,0-1.49-.27H94.83v5.34C94.83,16.71,94.33,17.23,93.31,17.23Zm1.52-9.17h3.72q3.35,0,3.34-2.72c0-1.8-1.11-2.69-3.34-2.69H94.83Z"/><path class="cls-1" d="M110.35,17a1.43,1.43,0,0,1-1.62-1.62V1.86A1.43,1.43,0,0,1,110.35.24h8.5c.83,0,1.24.4,1.24,1.19a1.09,1.09,0,0,1-1.24,1.24h-7.19V7.29h6.67a1.09,1.09,0,0,1,1.24,1.22,1.08,1.08,0,0,1-1.24,1.21h-6.67v4.89h7.19a1.08,1.08,0,0,1,1.24,1.21A1.09,1.09,0,0,1,118.85,17Z"/><circle class="cls-2" cx="48.92" cy="8.01" r="2.97"/><path class="cls-1" d="M122.48,17.16h-.39V15.21h-.66v-.34h1.72v.34h-.67Zm2.46,0-.63-1.77h0l0,.41v1.36h-.38V14.87h.6l.62,1.77.64-1.77h.57v2.29H126V15.83l0-.44h0l-.67,1.77Z"/></g></g></svg>