<svg xmlns="http://www.w3.org/2000/svg" width="16.2" height="25.453" viewBox="0 0 16.2 25.453"><defs><style>.a{fill:#000;fill-rule:evenodd;}</style></defs><g transform="translate(0 0)"><path class="a" d="M.665.915A1.157,1.157,0,0,1,2.3.915L8.425,7.039,14.548.915a1.158,1.158,0,0,1,1.638,1.638L9.244,9.494a1.157,1.157,0,0,1-1.638,0L.665,2.553a1.157,1.157,0,0,1,0-1.638Z" transform="translate(-0.325 15.619)"/><path class="a" d="M1.632.225A1.157,1.157,0,0,1,2.789,1.382V22.206a1.157,1.157,0,1,1-2.314,0V1.382A1.157,1.157,0,0,1,1.632.225Z" transform="translate(6.469 -0.225)"/></g></svg>