<!-- Generated by IcoMoon.io -->
<svg version="1.1" xmlns="http://www.w3.org/2000/svg" width="512" height="512" viewBox="0 0 512 512">
<title></title>
<g id="icomoon-ignore">
</g>
<path fill="#6b0dee" d="M507.442 97.077l-20.795-41.417c-2.637-5.215-7.954-8.729-14.091-8.729-0.017 0-0.035 0-0.053 0h-189.625v-31.467c-0.012-8.536-6.928-15.453-15.463-15.464h-42.822c-8.527 0.023-15.432 6.935-15.444 15.463v31.468h-53.921c-0.083-0.003-0.179-0.005-0.276-0.005-4.141 0-7.498 3.357-7.498 7.498s3.357 7.498 7.498 7.498c0.097 0 0.194-0.002 0.29-0.005l-0.014 0.001h317.317c0.001 0 0.002 0 0.003 0 0.327 0 0.611 0.188 0.748 0.463l0.002 0.005 20.714 41.387c0.056 0.109 0.089 0.239 0.089 0.376s-0.033 0.266-0.091 0.381l0.002-0.005-20.755 41.447c-0.14 0.274-0.421 0.458-0.745 0.458-0.003 0-0.006 0-0.009 0h-435.056c-0.001 0-0.002 0-0.004 0-0.319 0-0.597-0.179-0.737-0.443l-0.002-0.005-21.629-41.417c-0.060-0.112-0.095-0.246-0.095-0.386s0.035-0.275 0.097-0.391l-0.002 0.004 21.629-41.417c0.145-0.267 0.422-0.447 0.742-0.447v0h85.794c4.020-0.153 7.222-3.449 7.222-7.493s-3.201-7.34-7.208-7.492l-0.014-0.001h-85.794c-0.008 0-0.017 0-0.027 0-6.056 0-11.316 3.413-13.962 8.419l-0.041 0.086-21.619 41.396c-1.131 2.126-1.796 4.647-1.796 7.325s0.664 5.2 1.837 7.411l-0.042-0.086 21.629 41.417c2.688 5.088 7.945 8.495 13.997 8.495 0.011 0 0.023 0 0.034 0h171.69v42.505l-115.522 10.754c-3.448 0.358-6.383 2.284-8.112 5.042l-0.026 0.046-23.156 37.022c-1.021 1.616-1.627 3.584-1.627 5.692 0 2.933 1.172 5.592 3.074 7.535l-0.002-0.002 30.572 31.274c1.972 2.003 4.712 3.245 7.742 3.245v0c0.002 0 0.006 0 0.009 0 0.463 0 0.919-0.029 1.367-0.087l-0.053 0.005 105.735-13.205v47.979l-106.823-5.779c-0.159-0.009-0.346-0.014-0.534-0.014-5.366 0-9.761 4.154-10.147 9.422l-0.002 0.033-3.286 46.799c-0.016 0.209-0.024 0.454-0.024 0.7 0 5.308 4.066 9.668 9.253 10.132l0.039 0.003 111.524 9.685v94.31c-0.003 0.082-0.005 0.179-0.005 0.276 0 4.141 3.357 7.498 7.498 7.498s7.498-3.357 7.498-7.498c0-0.097-0.002-0.194-0.006-0.29l0 0.014v-93.018l43.747 3.784v25.251c-0.003 0.082-0.005 0.179-0.005 0.276 0 4.141 3.357 7.498 7.498 7.498s7.498-3.357 7.498-7.498c0-0.097-0.002-0.194-0.005-0.29l0 0.014v-23.959l82.661 7.122c0.285 0 0.57 0 0.854 0 0.005 0 0.010 0 0.014 0 2.983 0 5.666-1.284 7.527-3.329l0.007-0.008 23.735-26.207c1.628-1.796 2.625-4.192 2.625-6.82 0-2.129-0.654-4.105-1.772-5.739l0.022 0.035-19.839-29.269c-1.753-2.558-4.592-4.262-7.837-4.445l-0.026-0.001-87.971-4.762v-61.133l150.651-18.852c5.359-0.716 9.449-5.257 9.449-10.755 0-0.398-0.022-0.79-0.063-1.176l0.004 0.048-6.288-57.745c-0.634-5.442-5.216-9.625-10.776-9.625-0.336 0-0.668 0.016-0.996 0.045l0.042-0.003-80.026 7.406c-3.724 0.476-6.575 3.625-6.575 7.441 0 4.141 3.357 7.498 7.498 7.498 0.162 0 0.322-0.005 0.482-0.015l-0.022 0.001 75.916-7.030 5.392 49.546-323.95 40.542-26.818-27.469 20.287-32.555 217.381-20.185c3.724-0.476 6.575-3.625 6.575-7.441 0-4.141-3.357-7.498-7.498-7.498-0.162 0-0.322 0.005-0.482 0.015l0.022-0.001-30.195 2.798v-35.577h189.627c0.015 0 0.033 0 0.050 0 6.138 0 11.455-3.513 14.050-8.639l0.041-0.090 20.795-41.417c1.063-2.075 1.685-4.525 1.685-7.121s-0.623-5.047-1.727-7.212l0.041 0.090zM224.115 15.464c0-0.264 0.214-0.478 0.478-0.478v0h42.821c0.264 0 0.478 0.214 0.478 0.478v0 31.467h-43.747v-31.467zM384.026 386.945l-19.584 21.629-260.863-22.545 2.625-37.378 261.464 14.142zM267.893 342.385l-43.747-2.37v-50.665l43.747-5.483zM267.893 198.478l-43.747 4.070v-41.132h43.747z"></path>
<path fill="#6b0dee" d="M48.416 104.168c0 12.299 9.971 22.27 22.27 22.27s22.27-9.971 22.27-22.27c0-12.299-9.971-22.27-22.27-22.27v0c-12.293 0.017-22.253 9.978-22.27 22.269v0.001zM77.981 104.168c0 4.023-3.261 7.284-7.284 7.284s-7.285-3.261-7.285-7.284c0-4.023 3.262-7.284 7.285-7.284v0c0 0 0 0 0 0 4.025 0 7.288 3.26 7.294 7.284v0.001z"></path>
<path fill="#6b0dee" d="M458.588 104.168c-0.006-12.295-9.974-22.26-22.27-22.26-12.3 0-22.27 9.971-22.27 22.27 0 12.288 9.954 22.252 22.238 22.27h0.002c12.309 0 22.289-9.973 22.3-22.279v-0.001zM429.024 104.168c0-4.023 3.262-7.284 7.284-7.284s7.284 3.261 7.284 7.284c0 4.023-3.262 7.284-7.284 7.284v0c-4.021-0.006-7.279-3.263-7.284-7.284v-0.001z"></path>
<path fill="#6b0dee" d="M275.391 464.926c-4.141 0-7.498 3.357-7.498 7.498v32.118c0.153 4.021 3.449 7.222 7.493 7.222s7.34-3.202 7.493-7.208l0-0.014v-32.087c0-0.009 0-0.020 0-0.031 0-4.137-3.351-7.492-7.488-7.498h-0z"></path>
</svg>
