<!-- Generated by IcoMoon.io -->
<svg version="1.1" xmlns="http://www.w3.org/2000/svg" width="512" height="512" viewBox="0 0 512 512">
<title></title>
<g id="icomoon-ignore">
</g>
<path fill="#6b0dee" d="M469.332 392.536h-17.063v-20.677c15.169-6.773 25.558-21.708 25.6-39.074v-34.123c0-23.563-19.101-42.663-42.663-42.663-0.003 0-0.007 0-0.010 0h-17.063c-23.563 0-42.663 19.101-42.663 42.663v0 34.137c0.042 17.372 10.431 32.307 25.329 38.971l0.272 0.108v20.677h-17.073c-23.555 0-42.652 19.090-42.663 42.642v68.264c0 4.714 3.822 8.536 8.536 8.536v0h153.6c4.714 0 8.537-3.822 8.537-8.536v0-68.264c0-23.563-19.101-42.663-42.663-42.663-0.003 0-0.007 0-0.010 0h0zM418.132 273.063h17.063c14.12 0.045 25.555 11.479 25.6 25.596v0.005h-13.568l-5.976-6.055c-1.553-1.542-3.693-2.495-6.055-2.495-0.979 0-1.921 0.164-2.798 0.466l0.060-0.018-24.231 8.103h-15.695c0.045-14.12 11.479-25.555 25.596-25.6h0.005zM392.533 332.8v-17.063h17.063c0.978-0.017 1.914-0.171 2.799-0.442l-0.072 0.019 20.568-6.892 4.776 4.864c1.57 1.51 3.701 2.448 6.051 2.471h17.068v17.043c-0.045 14.12-11.479 25.555-25.596 25.6h-17.058c-14.12-0.045-25.555-11.479-25.6-25.596v-0.005zM435.196 375.464v17.063h-17.063v-17.063zM457.517 409.6l-11.353 34.137h-38.952l-11.353-34.137zM494.933 494.937h-136.536v-59.736c0.011-12.020 8.327-22.094 19.518-24.796l0.175-0.036 14.848 44.632c1.208 3.385 4.373 5.769 8.1 5.8h51.204c3.73-0.029 6.896-2.414 8.084-5.739l0.019-0.060 14.897-44.632c11.366 2.738 19.681 12.812 19.692 24.831v0.001z"></path>
<path fill="#6b0dee" d="M127.996 136.536h-17.064v-20.677c15.169-6.773 25.558-21.708 25.6-39.074v-34.123c0-23.563-19.101-42.663-42.663-42.663-0.004 0-0.007 0-0.010 0h-17.063c-23.563 0-42.663 19.101-42.663 42.663v0 34.136c0.042 17.371 10.431 32.306 25.328 38.971l0.272 0.109v20.677h-17.073c-23.555 0-42.652 19.090-42.663 42.643v68.264c0 4.714 3.822 8.536 8.537 8.536v0h153.6c4.714 0 8.536-3.822 8.536-8.536v0-68.263c0-23.563-19.101-42.663-42.663-42.663-0.004 0-0.007 0-0.010 0h0.001zM76.796 17.064h17.064c14.121 0.044 25.555 11.479 25.6 25.596v0.005h-13.568l-5.977-6.056c-1.553-1.542-3.693-2.495-6.055-2.495-0.98 0-1.921 0.164-2.797 0.465l0.061-0.018-24.231 8.103h-15.695c0.044-14.12 11.48-25.555 25.596-25.6h0.004zM51.196 76.8v-17.064h17.064c0.978-0.017 1.915-0.171 2.799-0.443l-0.072 0.019 20.569-6.892 4.775 4.864c1.57 1.511 3.701 2.448 6.051 2.471h17.068v17.044c-0.044 14.12-11.48 25.555-25.596 25.6h-17.058c-14.12-0.044-25.555-11.48-25.6-25.596v-0.004zM93.859 119.463v17.063h-17.064v-17.064zM116.18 153.6l-11.352 34.136h-38.952l-11.352-34.137zM153.596 238.936h-136.536v-59.737c0.011-12.020 8.326-22.095 19.518-24.797l0.175-0.036 14.848 44.632c1.208 3.385 4.373 5.769 8.1 5.799h51.203c3.73-0.030 6.895-2.415 8.085-5.739l0.019-0.060 14.897-44.632c11.366 2.738 19.681 12.812 19.692 24.831v0.001z"></path>
<path fill="#6b0dee" d="M204.767 462.336v-78.336c-0.044-14.12-11.48-25.555-25.596-25.6h-136.512c-14.12 0.045-25.555 11.479-25.6 25.596v78.341c-9.924 3.675-16.869 13.060-16.869 24.065 0 14.060 11.334 25.472 25.363 25.599h170.705c14.054-0.111 25.404-11.529 25.404-25.599 0-11.005-6.945-20.389-16.691-24.007l-0.177-0.058zM34.133 384c0-4.714 3.822-8.536 8.536-8.536h136.497c4.714 0 8.536 3.822 8.536 8.536v0 76.8h-59.737c-4.715 0-8.537 3.822-8.537 8.536v0h-17.064c0-4.714-3.822-8.536-8.537-8.536v0h-59.697zM196.26 494.937h-170.693c-0.087 0.003-0.188 0.005-0.29 0.005-4.715 0-8.537-3.822-8.537-8.536s3.822-8.536 8.537-8.536c0.102 0 0.203 0.002 0.305 0.005l-0.015-0h59.766c0 4.714 3.822 8.536 8.537 8.536v0h34.097c4.714 0 8.536-3.822 8.536-8.536v0h59.737c0.087-0.003 0.188-0.005 0.29-0.005 4.714 0 8.536 3.822 8.536 8.536s-3.822 8.536-8.536 8.536c-0.102 0-0.203-0.002-0.304-0.005l0.014 0z"></path>
<path fill="#6b0dee" d="M102.396 409.6h17.064v17.063h-17.064z"></path>
<path fill="#6b0dee" d="M136.532 409.6h17.064v17.063h-17.064z"></path>
<path fill="#6b0dee" d="M68.26 409.6h17.064v17.063h-17.064z"></path>
<path fill="#6b0dee" d="M494.903 103.936v-78.336c-0.045-14.12-11.479-25.555-25.596-25.6h-136.512c-14.12 0.044-25.555 11.479-25.6 25.596v78.34c-9.923 3.675-16.868 13.059-16.868 24.065 0 14.059 11.334 25.472 25.363 25.599h170.705c14.054-0.111 25.404-11.53 25.404-25.6 0-11.005-6.945-20.389-16.691-24.007l-0.177-0.058zM324.269 25.6c0-4.715 3.822-8.537 8.536-8.537v0h136.497c4.714 0 8.536 3.822 8.536 8.537v0 76.8h-59.736c-4.714 0-8.536 3.822-8.536 8.537h-17.063c0-4.715-3.822-8.537-8.536-8.537h-59.697zM486.396 136.536h-170.693c-4.589-0.161-8.247-3.919-8.247-8.531s3.659-8.371 8.232-8.531l0.014-0.001h59.766c0 4.715 3.822 8.537 8.536 8.537v0h34.097c4.714 0 8.536-3.822 8.536-8.537h59.736c4.589 0.161 8.247 3.919 8.247 8.532s-3.659 8.371-8.232 8.531l-0.014 0z"></path>
<path fill="#6b0dee" d="M392.533 51.2h17.063v17.064h-17.063z"></path>
<path fill="#6b0dee" d="M426.659 51.2h17.063v17.064h-17.063z"></path>
<path fill="#6b0dee" d="M358.396 51.2h17.063v17.064h-17.063z"></path>
<path fill="#6b0dee" d="M81.138 345.216l15.203-7.769c-9.892-18.918-16.587-41.031-18.725-64.46l-0.051-0.692-16.975 1.536c2.407 26.43 9.744 50.656 21.089 72.464l-0.51-1.079z"></path>
<path fill="#6b0dee" d="M223.405 432.246l-3.091 16.738c10.7 2.055 23.006 3.229 35.587 3.229 0.034 0 0.067 0 0.101 0h-0.005c0.091 0 0.199 0 0.306 0 25.574 0 50-4.913 72.387-13.846l-1.318 0.464-6.213-15.901c-19.365 7.724-41.806 12.203-65.294 12.203-11.475 0-22.7-1.069-33.581-3.113l1.122 0.175z"></path>
<path fill="#6b0dee" d="M434.457 239.704l16.995-1.536c-2.41-26.431-9.757-50.658-21.118-72.46l0.51 1.076-15.202 7.768c9.906 18.916 16.611 41.029 18.755 64.459l0.051 0.692z"></path>
<path fill="#6b0dee" d="M255.996 76.8c11.519 0.001 22.786 1.076 33.707 3.13l-1.127-0.176 3.101-16.739c-10.723-2.075-23.060-3.267-35.673-3.279h-0.010c-0.076 0-0.166 0-0.256 0-39.726 0-76.684 11.85-107.534 32.208l0.732-0.454 9.315 14.326c27.504-18.188 61.259-29.017 97.543-29.017 0.070 0 0.14 0 0.21 0h-0.011z"></path>
</svg>
