<!-- Generated by IcoMoon.io -->
<svg version="1.1" xmlns="http://www.w3.org/2000/svg" width="512" height="512" viewBox="0 0 512 512">
<title></title>
<g id="icomoon-ignore">
</g>
<path fill="#6b0dee" d="M119.076 247.235c-5.317 0.005-9.626 4.315-9.626 9.632 0 2.716 1.124 5.168 2.931 6.919l0.002 0.002c5.931 5.649 13.978 9.126 22.836 9.126s16.905-3.476 22.85-9.139l-0.014 0.013c1.893-1.764 3.073-4.271 3.073-7.054 0-5.32-4.313-9.631-9.631-9.631-2.666 0-5.078 1.083-6.822 2.833l-0 0c-2.456 2.339-5.786 3.778-9.454 3.778s-6.999-1.439-9.46-3.783l0.005 0.005c-1.724-1.672-4.077-2.701-6.671-2.701-0.007 0-0.014 0-0.021 0h0.001z"></path>
<path fill="#6b0dee" d="M502.234 299.615c0.18-0.695 0.283-1.495 0.283-2.317 0-4.238-2.738-7.837-6.541-9.125l-0.068-0.020c-22.809-7.535-49.998-24.524-49.998-62.678v-20.197c0-31.153-7.108-55.525-21.209-72.452-13.223-15.4-32.713-25.094-54.468-25.094-0.981 0-1.957 0.020-2.929 0.059l0.139-0.004c-0.572-0.016-1.245-0.025-1.92-0.025-21.678 0-41.103 9.651-54.21 24.891l-0.079 0.094c-14.563 17.060-22.267 42.144-22.267 72.55v20.197c0.022 0.606 0.035 1.319 0.035 2.034 0 19.692-9.677 37.125-24.534 47.8l-0.175 0.12c-3.633-0.761-7.808-1.197-12.086-1.197-26.224 0-48.62 16.388-57.505 39.481l-0.143 0.422c-2.567-0.719-16.047-4.353-20.019-5.518v-6.406c25.923-14.27 43.202-41.397 43.227-72.564v-38.211c0.003-0.254 0.005-0.555 0.005-0.857 0-45.594-36.961-82.555-82.555-82.555s-82.555 36.961-82.555 82.555c0 0.301 0.002 0.602 0.005 0.902l-0.001-0.046v38.208c0.031 31.168 17.312 58.293 42.81 72.343l0.427 0.216v6.416c-3.981 1.164-8.112 2.284-12.386 3.439-32.618 8.788-73.216 19.708-74.034 69.466v84.412c0 5.32 4.313 9.632 9.632 9.632v0h130.207v13.692s0 0.045 0 0.071c0 5.32 4.313 9.632 9.631 9.632h49.981c0.087 0.003 0.19 0.005 0.292 0.005 5.32 0 9.631-4.313 9.631-9.632s-4.313-9.632-9.631-9.632c-0.103 0-0.205 0.002-0.308 0.005l0.014-0h-40.349v-5.775c-0-0.097-0.001-0.212-0.001-0.327 0-6.181 0.999-12.128 2.843-17.69l-0.114 0.397c6.060-17.353 21.734-21.974 43.085-28.273l3.030-0.888c5.225 14.010 18.481 23.811 34.029 23.83h0.002c0.369 0.014 0.803 0.021 1.238 0.021 15.643 0 29-9.788 34.281-23.574l0.084-0.252 2.959 0.888c27.252 7.997 45.263 13.329 45.805 45.893v5.767h-40.429c-5.32 0-9.632 4.313-9.632 9.632s4.313 9.632 9.632 9.632v0h50.060c5.32 0 9.632-4.313 9.632-9.632v0s0-0.045 0-0.071v-13.692h128.457c5.32 0 9.632-4.313 9.632-9.632v0-84.234c0-0.053 0-0.107 0-0.16 0.021-0.578 0.032-1.257 0.032-1.938 0-16.37-6.668-31.184-17.435-41.873l-0.003-0.003c13.861-6.495 21.494-18.099 26.461-38.137zM367.433 127.041c0.838-0.048 1.818-0.075 2.805-0.075 15.817 0 29.995 7.013 39.594 18.101l0.055 0.065c10.368 14.112 16.592 31.829 16.592 51 0 0.501-0.005 1-0.013 1.5l0.001-0.075c-17.833 3.092-38.829 0.595-50.433-22.356-1.666-3.101-4.887-5.175-8.593-5.175s-6.926 2.073-8.567 5.123l-0.026 0.052c-11.604 22.942-32.582 25.447-50.416 22.364 2.23-44.329 23.92-70.541 59.008-70.541zM308.22 217.034c3.575 0.545 7.716 0.867 11.928 0.888h0.024c0.585 0.020 1.272 0.032 1.962 0.032 18.099 0 34.313-8.077 45.231-20.823l0.067-0.081c10.986 12.827 27.2 20.904 45.299 20.904 0.69 0 1.378-0.012 2.063-0.035l-0.099 0.003c4.235-0.022 8.376-0.345 12.425-0.946l-0.475 0.058v8.45c0 32.702-26.51 59.212-59.212 59.212s-59.212-26.51-59.212-59.213v0-8.45zM387.496 301.339v14.385c0 11.076-8.978 20.055-20.055 20.055s-20.055-8.978-20.055-20.055v0-14.377c6.016 1.658 12.924 2.611 20.055 2.611s14.038-0.954 20.603-2.738l-0.549 0.127zM299.147 264.091c7.034 12.221 16.844 22.123 28.607 29.067l0.368 0.201v15.265c-4.007 1.173-8.157 2.293-12.44 3.457l-6.007 1.635c-5.046-12.724-13.767-23.092-24.843-30.059l-0.258-0.151c5.736-5.54 10.592-11.941 14.372-19.005l0.2-0.411zM212.959 319.936c6.458-15.645 21.593-26.454 39.252-26.454 20.596 0 37.757 14.702 41.562 34.183l0.043 0.268c-12.166-5.95-26.473-9.43-41.593-9.43s-29.427 3.479-42.165 9.681l0.572-0.252c0.585-3.043 1.4-5.724 2.458-8.276l-0.102 0.28zM71.921 191.391c0-34.954 28.337-63.291 63.29-63.291s63.291 28.337 63.291 63.291v9.961c-25.315 0.888-57.214-2.168-80.742-18.268-1.522-1.054-3.408-1.685-5.442-1.685-3.117 0-5.888 1.481-7.648 3.776l-0.017 0.023c-8.139 10.662-18.366 13.328-32.743 15.106v-8.885zM71.921 229.597v-9.988c16.188-0.385 30.892-6.435 42.276-16.237l-0.088 0.074c21.484 11.024 46.874 17.484 73.774 17.484 3.743 0 7.457-0.125 11.137-0.371l-0.499 0.026v9.010c0 34.954-28.337 63.291-63.291 63.291s-63.291-28.337-63.291-63.291v0zM155.274 309.664v5.918s0 0.053 0 0.089c0 11.076-8.978 20.055-20.054 20.055s-20.055-8.978-20.055-20.055v0s0 0 0-0.062v-5.945c6.022 1.573 12.934 2.476 20.059 2.476s14.037-0.903 20.631-2.601l-0.572 0.125zM215.243 407.662c-2.106 0.649-4.22 1.271-6.3 1.875-23.768 7.010-50.265 14.821-57.631 46.746h-71.039v-38.962c0-5.32-4.313-9.632-9.632-9.632s-9.632 4.313-9.632 9.632v0 38.962h-32.263v-74.522c0.578-32.877 22.978-41.238 59.781-51.154 3.1-0.835 6.22-1.688 9.383-2.577 5.341 15.793 20.025 26.959 37.319 26.959s31.978-11.166 37.237-26.683l0.082-0.277c3.137 0.888 15.327 4.193 18.135 4.994-0.044 0.888-0.071 1.856-0.071 2.79v13.613c0 0 0 0.002 0 0.002 0 20.077 9.612 37.909 24.484 49.147l0.155 0.113zM269.923 414.69s0 0 0 0c-0.437 9.442-8.197 16.933-17.709 16.933s-17.272-7.49-17.708-16.894l-0.001-0.039s0 0 0 0v-6.22c1.941 0.62 4.364 1.21 6.841 1.646l0.356 0.052c3.156 0.575 6.79 0.903 10.5 0.903 3.091 0 6.13-0.228 9.099-0.669l-0.336 0.041c3.423-0.483 6.453-1.168 9.385-2.075l-0.42 0.111zM275.050 385.111c-6.452 4.182-14.341 6.668-22.81 6.668-23.061 0-41.818-18.435-42.337-41.371l-0.001-0.048c11.936-7.897 26.585-12.601 42.334-12.601s30.399 4.702 42.624 12.779l-0.289-0.18c-0.315 14.586-7.953 27.322-19.373 34.713l-0.166 0.101zM473.933 456.274h-32.289v-38.962c0-5.32-4.313-9.632-9.632-9.632s-9.632 4.313-9.632 9.632v0 38.962h-69.307c-7.375-31.916-33.871-39.736-57.631-46.737-2.079-0.604-4.185-1.235-6.3-1.875v-8.938c15.048-11.353 24.675-29.2 24.675-49.296v0-13.453c0-1.164 0-2.319-0.107-3.466 2.328-0.639 4.656-1.271 6.949-1.892 3.118-0.844 6.291-1.697 9.454-2.586 5.341 15.793 20.026 26.959 37.319 26.959s31.978-11.166 37.237-26.683l0.082-0.277c3.137 0.888 6.282 1.777 9.383 2.567 36.804 9.916 59.204 18.322 59.781 51.154v74.522zM454.963 323.881c-10.007-4.462-21.939-8.543-34.279-11.589l-1.521-0.318c-4.283-1.155-8.415-2.265-12.387-3.43v-15.283c12.091-7.13 21.87-16.997 28.692-28.791l0.204-0.381c10.254 17.805 26.007 31.461 44.908 38.818l0.604 0.207c-4.629 13.497-11.125 18.305-26.23 20.854z"></path>
<path fill="#6b0dee" d="M249.985 134.897c1.73 1.67 4.088 2.699 6.687 2.699s4.957-1.030 6.689-2.702l-0.003 0.003 50.959-49.181c7.86-7.705 12.731-18.433 12.731-30.299 0-23.427-18.991-42.419-42.419-42.419-10.733 0-20.537 3.987-28.008 10.56l0.047-0.041c-7.424-6.533-17.227-10.52-27.961-10.52-23.428 0-42.419 18.991-42.419 42.419 0 11.866 4.872 22.594 12.725 30.292l0.007 0.007zM211.778 39.093c4.125-4.271 9.876-6.95 16.253-7.037h0.452c0.030 0 0.066 0 0.102 0 6.207 0 11.837 2.463 15.968 6.466l-0.006-0.005 5.429 5.243c1.73 1.67 4.088 2.699 6.687 2.699s4.957-1.029 6.689-2.702l-0.003 0.003 5.438-5.243c4.171-3.995 9.841-6.453 16.084-6.453 6.532 0 12.436 2.691 16.663 7.026l0.005 0.005c4.007 4.163 6.474 9.832 6.474 16.077 0 6.545-2.711 12.459-7.072 16.677l-0.007 0.006-44.276 42.73-44.276-42.739c-4.361-4.227-7.067-10.136-7.067-16.68 0-6.242 2.463-11.908 6.47-16.079l-0.007 0.008z"></path>
<path fill="#6b0dee" d="M252.161 479.732c-5.32 0-9.631 4.313-9.631 9.632s4.313 9.632 9.631 9.632v0h0.053c5.308-0.015 9.605-4.322 9.605-9.632 0-5.32-4.313-9.632-9.632-9.632-0.010 0-0.018 0-0.028 0h0.001z"></path>
</svg>
