<svg xmlns="http://www.w3.org/2000/svg" width="21.455" height="17.425" viewBox="0 0 21.455 17.425"><path d="M19.25,7.723c.014.191.014.381.014.572A12.425,12.425,0,0,1,6.752,20.806,12.426,12.426,0,0,1,0,18.832a9.1,9.1,0,0,0,1.062.054,8.806,8.806,0,0,0,5.459-1.879A4.4,4.4,0,0,1,2.41,13.959a5.545,5.545,0,0,0,.83.068,4.651,4.651,0,0,0,1.157-.15A4.4,4.4,0,0,1,.871,9.561V9.507a4.428,4.428,0,0,0,1.988.558A4.4,4.4,0,0,1,1.5,4.184a12.5,12.5,0,0,0,9.067,4.6,4.964,4.964,0,0,1-.109-1.007,4.4,4.4,0,0,1,7.61-3.009,8.657,8.657,0,0,0,2.791-1.062,4.385,4.385,0,0,1-1.933,2.423,8.815,8.815,0,0,0,2.532-.681A9.452,9.452,0,0,1,19.25,7.723Z" transform="translate(0 -3.381)"/></svg>