<svg xmlns="http://www.w3.org/2000/svg" width="19.131" height="19.127" viewBox="0 0 19.131 19.127"><defs><style>.a{fill:#191919;}</style></defs><path class="a" d="M9.562,6.9a4.9,4.9,0,1,0,4.9,4.9A4.9,4.9,0,0,0,9.562,6.9Zm0,8.092A3.188,3.188,0,1,1,12.751,11.8,3.194,3.194,0,0,1,9.562,14.989ZM15.811,6.7a1.144,1.144,0,1,1-1.144-1.144A1.141,1.141,0,0,1,15.811,6.7Zm3.248,1.161A5.66,5.66,0,0,0,17.514,3.85,5.7,5.7,0,0,0,13.506,2.3c-1.579-.09-6.312-.09-7.891,0A5.689,5.689,0,0,0,1.607,3.846,5.679,5.679,0,0,0,.062,7.853c-.09,1.579-.09,6.312,0,7.891a5.66,5.66,0,0,0,1.545,4.008A5.7,5.7,0,0,0,5.615,21.3c1.579.09,6.312.09,7.891,0a5.66,5.66,0,0,0,4.008-1.545,5.7,5.7,0,0,0,1.545-4.008c.09-1.579.09-6.308,0-7.887Zm-2.04,9.582A3.228,3.228,0,0,1,15.2,19.257c-1.259.5-4.247.384-5.638.384s-4.383.111-5.638-.384a3.228,3.228,0,0,1-1.818-1.818c-.5-1.259-.384-4.247-.384-5.638s-.111-4.383.384-5.638A3.228,3.228,0,0,1,3.924,4.345c1.259-.5,4.247-.384,5.638-.384s4.383-.111,5.638.384a3.228,3.228,0,0,1,1.818,1.818c.5,1.259.384,4.247.384,5.638S17.518,16.184,17.019,17.439Z" transform="translate(0.005 -2.238)"/></svg>