<!-- Generated by IcoMoon.io -->
<svg version="1.1" xmlns="http://www.w3.org/2000/svg" width="512" height="512" viewBox="0 0 512 512">
<title></title>
<g id="icomoon-ignore">
</g>
<path fill="#6b0dee" d="M235.432 347.315c1.825-1.816 2.953-4.329 2.953-7.106 0-5.538-4.489-10.028-10.028-10.028s-10.028 4.49-10.028 10.028c0 2.777 1.129 5.291 2.953 7.106l0 0c1.813 1.805 4.314 2.921 7.075 2.921s5.262-1.115 7.075-2.921l-0 0z"></path>
<path fill="#6b0dee" d="M188.082 109.981c0 60.737 49.237 109.973 109.973 109.973s109.973-49.237 109.973-109.973c0-60.736-49.236-109.973-109.973-109.973v0c-60.709 0.069-109.904 49.264-109.973 109.966v0.007zM388.022 109.981c0 0.003 0 0.007 0 0.010 0 49.694-40.284 89.978-89.978 89.978s-89.978-40.285-89.978-89.978c0-49.694 40.285-89.978 89.978-89.978v0c49.667 0.057 89.915 40.301 89.978 89.962v0.006z"></path>
<path fill="#6b0dee" d="M115.291 509.050c1.815 1.817 4.323 2.942 7.095 2.942 2.731 0 5.207-1.091 7.016-2.863l-0.001 0.002 48.474-47.752c5.404-5.457 8.743-12.966 8.743-21.257 0-3.498-0.595-6.856-1.688-9.981l0.065 0.212 10.429-10.028c5.361-5.204 12.684-8.413 20.757-8.413 0.021 0 0.042 0 0.064 0h132.843c0.055 0 0.12 0 0.186 0 24.358 0 46.445-9.731 62.584-25.517l-0.017 0.016c0.692-0.672-5.274 6.358 90.67-108.298 5.808-6.896 9.337-15.877 9.337-25.683 0-22.086-17.904-39.99-39.99-39.99-12.031 0-22.822 5.314-30.154 13.722l-0.041 0.048-58.993 60.637c-7.399-9.077-18.565-14.839-31.079-14.881h-111.444c-14.722-6.341-31.861-10.028-49.861-10.028-0.070 0-0.138 0-0.208 0h0.011c-1.317-0.050-2.865-0.079-4.419-0.079-46.411 0-86.853 25.564-108.010 63.38l-0.322 0.625c-1.671-0.332-3.594-0.522-5.559-0.522-8.276 0-15.764 3.366-21.173 8.804l-0.002 0.002-47.551 47.702c-1.79 1.81-2.896 4.301-2.896 7.050s1.106 5.239 2.897 7.050l-0.001-0.001zM190.087 281.935c0.076 0 0.167-0 0.256-0 15.829 0 30.871 3.37 44.447 9.432l-0.693-0.276c1.181 0.531 2.56 0.841 4.011 0.842h113.513c11.043 0 19.995 8.952 19.995 19.995s-8.952 19.995-19.995 19.995h-81.565c-0.233-0.019-0.503-0.030-0.776-0.030-5.538 0-10.028 4.49-10.028 10.028s4.49 10.028 10.028 10.028c0.273 0 0.544-0.011 0.812-0.033l-0.036 0.002h81.565c0.018 0 0.039 0 0.060 0 22.053 0 39.93-17.877 39.93-39.93 0-1.863-0.127-3.697-0.375-5.493l0.024 0.209c57.067-58.661 65.11-66.904 65.461-67.315 3.692-4.344 9.159-7.082 15.267-7.082 11.044 0 19.998 8.953 19.998 19.998 0 4.937-1.789 9.456-4.754 12.944l0.024-0.029-89.667 107.195c-12.499 12.056-29.533 19.484-48.301 19.484-0.053 0-0.107 0-0.161 0h-132.907c-0.025 0-0.055 0-0.085 0-13.465 0-25.68 5.354-34.632 14.050l0.012-0.012-8.494 8.202-78.316-78.315c17.84-32.392 51.755-53.974 90.711-53.974 1.639 0 3.27 0.038 4.891 0.114l-0.23-0.009zM64.742 348.277c1.813-1.803 4.313-2.92 7.073-2.92 1.963 0 3.796 0.565 5.343 1.539l-0.041-0.024c1.735 1.053-3.239-3.469 86.588 86.238 1.803 1.813 2.917 4.311 2.917 7.070 0 2.733-1.094 5.212-2.868 7.021l0.001-0.002-41.293 40.702-98.27-98.983z"></path>
<path fill="#6b0dee" d="M286.062 50.006v11.712c-11.75 4.241-19.997 15.297-19.997 28.278 0 16.564 13.428 29.993 29.993 29.993 0.011 0 0.022 0 0.034 0h-0.002c5.194 0.415 9.252 4.733 9.252 9.998s-4.058 9.582-9.216 9.996l-0.036 0.002c-5.38-0.547-10.004-3.383-12.938-7.506l-0.038-0.055c-1.82-1.844-4.346-2.986-7.139-2.986-5.538 0-10.028 4.489-10.028 10.028 0 2.185 0.699 4.206 1.885 5.853l-0.021-0.030c4.728 5.845 10.911 10.336 18.002 12.944l0.288 0.093v11.672c-0.019 0.232-0.030 0.503-0.030 0.776 0 5.538 4.49 10.028 10.028 10.028s10.028-4.489 10.028-10.028c0-0.273-0.011-0.544-0.033-0.811l0.002 0.036v-11.743c11.75-4.242 19.997-15.297 19.997-28.278 0-16.564-13.428-29.993-29.993-29.993-0.011 0-0.022 0-0.034 0h0.002c-5.194-0.415-9.252-4.733-9.252-9.998s4.058-9.582 9.216-9.996l0.036-0.002c4.302 0.296 8.099 2.246 10.798 5.212l0.012 0.013c1.724 1.442 3.966 2.317 6.411 2.317 5.538 0 10.028-4.489 10.028-10.028 0-2.561-0.959-4.897-2.539-6.669l0.009 0.010c-4.034-4.035-8.957-7.182-14.45-9.122l-0.271-0.083v-11.632c0.019-0.233 0.030-0.503 0.030-0.776 0-5.538-4.49-10.028-10.028-10.028s-10.028 4.489-10.028 10.028c0 0.273 0.011 0.544 0.033 0.812l-0.002-0.035z"></path>
</svg>
