<!-- Generated by IcoMoon.io -->
<svg version="1.1" xmlns="http://www.w3.org/2000/svg" width="512" height="512" viewBox="0 0 512 512">
<title></title>
<g id="icomoon-ignore">
</g>
<path fill="#6b0dee" d="M265.522 435.667c0 5.501-4.459 9.96-9.96 9.96s-9.96-4.459-9.96-9.96c0-5.501 4.459-9.96 9.96-9.96s9.96 4.459 9.96 9.96z"></path>
<path fill="#6b0dee" d="M420.040 133.834l-160.032-69.995c-1.18-0.53-2.558-0.839-4.008-0.839s-2.828 0.309-4.072 0.864l0.064-0.026-159.93 69.964c-3.573 1.588-6.034 5.076-6.104 9.148v61.773c-11.724 4.264-19.948 15.306-19.96 28.271v40.005c0 5.523 4.478 10 10.001 10v0h40.003c5.523 0 10.001-4.478 10.001-10v0-40.003c-0.017-12.978-8.259-24.028-19.793-28.216l-0.209-0.066v-46.422l60.025 26.248v68.459c0 0.005 0 0.011 0 0.017 0 4.053 2.411 7.544 5.879 9.115l0.063 0.026c1.923 0.854 47.429 20.856 84.055 20.856s82.142-20.012 84.055-20.856c3.529-1.596 5.942-5.086 5.942-9.14 0-0.006 0-0.012 0-0.018v0.001-68.459l74.004-32.383c3.55-1.588 5.978-5.089 5.978-9.156s-2.429-7.569-5.916-9.131l-0.063-0.025zM106.030 263.040h-20.032v-30.043c0-5.523 4.478-10 10.001-10s10.001 4.477 10.001 10v0zM326.036 246.365c-20.532 8.923-44.344 14.884-69.317 16.636l-0.688 0.038c-25.663-1.805-49.474-7.768-71.423-17.228l1.418 0.544v-53.066l65.996 28.873c1.18 0.53 2.559 0.839 4.008 0.839s2.828-0.309 4.072-0.864l-0.063 0.025 65.997-28.873zM256.031 202.131l-135.096-59.13 135.055-59.089 135.055 59.089-135.046 59.089z"></path>
<path fill="#6b0dee" d="M461.997 203.006h-85.998c-5.523 0-10 4.477-10 10s4.478 10 10 10v0h85.998c5.523 0 10-4.477 10-10s-4.478-10-10-10v0z"></path>
<path fill="#6b0dee" d="M461.997 242.998h-85.998c-5.523 0-10 4.477-10 10s4.478 10 10 10v0h85.998c5.523 0 10-4.478 10-10s-4.478-10-10-10v0z"></path>
<path fill="#6b0dee" d="M265.522 10.845c0 5.501-4.459 9.96-9.96 9.96s-9.96-4.459-9.96-9.96c0-5.501 4.459-9.96 9.96-9.96s9.96 4.46 9.96 9.96z"></path>
<path fill="#6b0dee" d="M502 0h-201.001c-5.523 0-10 4.478-10 10.001s4.478 10.001 10 10.001v0h191v306.003h-471.997v-306.003h191c5.523 0 10-4.477 10-10.001s-4.477-10.001-10-10.001v0h-201.001c-5.523 0-10.001 4.478-10.001 10.001v0 385.999c0 5.523 4.478 10 10.001 10v0h193.94l-16.227 85.998h-31.712c-5.523 0-10 4.478-10 10s4.477 10 10 10h199.994c5.523 0 10-4.478 10-10s-4.478-10-10-10h-31.712l-16.227-85.998h193.94c5.523 0 10-4.478 10-10v0-385.999c0-5.523-4.478-10.001-10-10.001v0zM208.061 491.998l16.227-85.998h63.423l16.227 85.998zM491.998 385.999h-471.997v-40.003h471.997z"></path>
</svg>
