<!-- Generated by IcoMoon.io -->
<svg version="1.1" xmlns="http://www.w3.org/2000/svg" width="512" height="512" viewBox="0 0 512 512">
<title></title>
<g id="icomoon-ignore">
</g>
<path fill="#6b0dee" d="M489.982 308.613c-20.111-4.463-43.207-7.019-66.901-7.019-2.743 0-5.478 0.035-8.204 0.101l0.404-0.008c14.413-38.118 17.382-84.12 8.736-137.073-0.387-2.316-1.675-4.276-3.483-5.541l-0.027-0.018c-1.224-0.852-2.741-1.361-4.378-1.361-0.682 0-1.344 0.089-1.971 0.255l0.053-0.012c-29.108 8.726-54.496 20.999-77.414 36.621l0.959-0.617c-15.87-44.818-42.098-82.627-75.907-111.915l-0.327-0.278c-1.322-1.086-3.034-1.746-4.9-1.746-2.252 0-4.281 0.96-5.695 2.494l-0.005 0.005c-35.512 37.768-59.249 76.577-70.882 115.544-23.559-16.968-50.897-30.654-80.299-39.602l-1.972-0.515c-0.575-0.154-1.237-0.243-1.918-0.243-1.636 0-3.154 0.508-4.403 1.377l0.025-0.017c-1.835 1.284-3.124 3.242-3.503 5.509l-0.007 0.049c-8.687 52.951-5.686 98.923 8.736 137.073-2.323-0.060-5.057-0.095-7.802-0.095-23.695 0-46.791 2.556-69.032 7.409l2.131-0.389c-2.337 0.602-4.224 2.17-5.244 4.241l-0.020 0.046c-0.569 1.127-0.902 2.457-0.902 3.865 0 1.113 0.208 2.18 0.589 3.159l-0.019-0.059c34.711 91.125 102.576 112.114 157.648 112.114 29.405-0.209 57.532-5.394 83.674-14.752l-1.768 0.553c24.373 8.817 52.501 14.011 81.815 14.231l0.098 0.001c55.103 0 122.944-20.996 157.743-112.105 0.36-0.921 0.569-1.985 0.569-3.099 0-1.408-0.332-2.738-0.925-3.916l0.024 0.050c-1.040-2.125-2.93-3.7-5.216-4.293l-0.056-0.013zM397.524 302.593c-31.087 2.087-59.716 10.834-85.053 24.815l1.051-0.531c-1.466 0.386-2.719 1.147-3.698 2.173l-0.002 0.002c-16.552 10.144-30.39 23.036-41.278 38.191l-0.286 0.419c0.035-1.416 0.054-3.082 0.054-4.755 0-14.619-1.503-28.887-4.363-42.658l0.235 1.353c10.92-44.866 37.303-82.318 73.062-107.258l0.592-0.392c20.623-15.072 44.377-27.656 69.853-36.578l1.919-0.585c6.869 49.235 2.731 91.498-12.086 125.827zM257.139 99.761c30.128 27.826 53.149 62.906 66.32 102.487l0.498 1.724c-30.315 22.636-53.732 52.954-67.543 88.099l-0.473 1.366c-13.31-34.267-34.674-62.917-61.85-84.59l-0.4-0.309c12.95-42.512 34.808-79.015 63.532-108.864l-0.082 0.085zM102.287 176.788c29.619 10.266 55.283 24.318 78.073 41.912l-0.63-0.468c33.513 25.014 57.78 60.788 67.751 102.136l0.25 1.226c-2.631 12.416-4.136 26.683-4.136 41.301 0 1.673 0.019 3.341 0.059 5.005l-0.004-0.247c-32.44-45.55-83.993-61.234-129.281-65.038-14.825-34.329-18.956-76.593-12.079-125.827zM163.021 415.31c-59.941-3.462-102.981-34.433-128.036-92.269 36.33-6.487 167.192-21.83 210.36 80.786-21.709 7.4-46.719 11.673-72.723 11.673-3.38 0-6.742-0.072-10.087-0.215l0.477 0.016zM348.844 415.31c-2.848 0.123-6.189 0.195-9.545 0.195-26.029 0-51.059-4.271-74.428-12.151l1.642 0.481c43.183-102.616 174.070-87.282 210.425-80.792-25.094 57.835-68.12 88.805-128.059 92.26z"></path>
<path fill="#6b0dee" d="M248.27 141.214h15.35v15.35h-15.35v-15.35z"></path>
<path fill="#6b0dee" d="M248.27 174.843h15.35v15.35h-15.35v-15.35z"></path>
<path fill="#6b0dee" d="M248.27 208.467h15.35v15.35h-15.35v-15.35z"></path>
<path fill="#6b0dee" d="M112.085 210.278c0.412 21.464 6.545 41.412 16.929 58.489l-0.292-0.518 12.746-8.512c-8.438-14.176-13.6-31.171-14.053-49.338l-0.002-0.129z"></path>
<path fill="#6b0dee" d="M399.796 210.278h-15.35c-0.423 18.292-5.591 35.291-14.313 49.926l0.259-0.469 12.768 8.522c10.091-16.559 16.224-36.506 16.635-57.856l0.002-0.114z"></path>
</svg>
